franklin.ufo
<glyph name="exclam" format="1">
  <advance width="1000"/>
  <unicode hex="0021"/>
  <outline>
    <contour>
      <point x="0" y="800" type="move"/>
      <point x="0" y="202.314" type="line"/>
    </contour>
    <contour>
      <point x="0" y="52.8936" type="move"/>
      <point x="0" y="3.08691" type="line"/>
    </contour>
  </outline>
</glyph>
<glyph name="ampersand" format="1">
  <advance width="1000"/>
  <unicode hex="0026"/>
  <outline>
    <contour>
      <point x="357.116" y="800" type="move"/>
      <point x="144.928" y="800" type="line"/>
      <point x="53.0469" y="746.953" type="line"/>
      <point x="0" y="655.072" type="line"/>
      <point x="0" y="548.979" type="line"/>
      <point x="53.0469" y="457.098" type="line"/>
      <point x="144.928" y="404.051" type="line"/>
      <point x="463.211" y="404.051" type="line"/>
      <point x="144.928" y="404.051" type="line"/>
      <point x="53.0469" y="351.003" type="line"/>
      <point x="0" y="259.123" type="line"/>
      <point x="0" y="153.028" type="line"/>
      <point x="53.0469" y="61.1484" type="line"/>
      <point x="144.928" y="8.10059" type="line"/>
      <point x="357.116" y="8.10059" type="line"/>
      <point x="357.116" y="538.572" type="line"/>
    </contour>
  </outline>
</glyph>
<glyph name="zero" format="1">
  <advance width="1000"/>
  <unicode hex="0030"/>
  <outline>
    <contour>
      <point x="0" y="659.248" type="move"/>
      <point x="0" y="144.06" type="line"/>
      <point x="51.5186" y="54.8262" type="line"/>
      <point x="140.752" y="3.30762" type="line"/>
      <point x="295.309" y="3.30762" type="line"/>
      <point x="384.542" y="54.8262" type="line"/>
      <point x="436.061" y="144.06" type="line"/>
      <point x="436.061" y="659.248" type="line"/>
      <point x="384.542" y="748.481" type="line"/>
      <point x="295.309" y="800" type="line"/>
      <point x="140.752" y="800" type="line"/>
      <point x="51.5186" y="748.481" type="line"/>
      <point x="0" y="659.248" type="line"/>
    </contour>
  </outline>
</glyph>
<glyph name="one" format="1">
  <advance width="1000"/>
  <unicode hex="0031"/>
  <outline>
    <contour>
      <point x="150.067" y="4.14648" type="move"/>
      <point x="150.067" y="800" type="line"/>
      <point x="0" y="649.933" type="line"/>
    </contour>
  </outline>
</glyph>
<glyph name="two" format="1">
  <advance width="1000"/>
  <unicode hex="0032"/>
  <outline>
    <contour>
      <point x="431.842" y="7.87207" type="move"/>
      <point x="0" y="7.87207" type="line"/>
      <point x="416.374" y="504.087" type="line"/>
      <point x="435.121" y="610.407" type="line"/>
      <point x="398.196" y="711.857" type="line"/>
      <point x="315.494" y="781.253" type="line"/>
      <point x="209.174" y="800" type="line"/>
      <point x="107.724" y="763.075" type="line"/>
      <point x="38.3281" y="680.373" type="line"/>
      <point x="10.208" y="520.893" type="line"/>
    </contour>
  </outline>
</glyph>
<glyph name="three" format="1">
  <advance width="1000"/>
  <unicode hex="0033"/>
  <outline>
    <contour>
      <point x="0" y="800" type="move"/>
      <point x="211.593" y="800" type="line"/>
      <point x="303.216" y="747.102" type="line"/>
      <point x="356.114" y="655.479" type="line"/>
      <point x="356.114" y="549.683" type="line"/>
      <point x="303.216" y="458.06" type="line"/>
      <point x="211.593" y="405.162" type="line"/>
      <point x="0" y="405.162" type="line"/>
      <point x="211.593" y="405.162" type="line"/>
      <point x="303.216" y="352.264" type="line"/>
      <point x="356.114" y="260.641" type="line"/>
      <point x="356.114" y="154.844" type="line"/>
      <point x="303.216" y="63.2217" type="line"/>
      <point x="211.593" y="10.3232" type="line"/>
      <point x="0" y="10.3232" type="line"/>
    </contour>
  </outline>
</glyph>
<glyph name="four" format="1">
  <advance width="1000"/>
  <unicode hex="0034"/>
  <outline>
    <contour>
      <point x="362.844" y="9.25098" type="move"/>
      <point x="362.844" y="800" type="line"/>
      <point x="0" y="281.805" type="line"/>
      <point x="474.449" y="281.805" type="line"/>
    </contour>
  </outline>
</glyph>
<glyph name="five" format="1">
  <advance width="1000"/>
  <unicode hex="0035"/>
  <outline>
    <contour>
      <point x="338.258" y="800" type="move"/>
      <point x="7.28418" y="800" type="line"/>
      <point x="7.28418" y="413.864" type="line"/>
      <point x="205.868" y="413.864" type="line"/>
      <point x="301.412" y="358.702" type="line"/>
      <point x="356.574" y="263.158" type="line"/>
      <point x="356.574" y="152.834" type="line"/>
      <point x="301.412" y="57.29" type="line"/>
      <point x="205.868" y="2.12793" type="line"/>
      <point x="95.5439" y="2.12793" type="line"/>
      <point x="0" y="57.29" type="line"/>
    </contour>
  </outline>
</glyph>
<glyph name="six" format="1">
  <advance width="1000"/>
  <unicode hex="0036"/>
  <outline>
    <contour>
      <point x="252.768" y="6.01953" type="move"/>
      <point x="345.286" y="59.4355" type="line"/>
      <point x="398.702" y="151.955" type="line"/>
      <point x="398.702" y="258.786" type="line"/>
      <point x="345.286" y="351.306" type="line"/>
      <point x="252.768" y="404.722" type="line"/>
      <point x="145.936" y="404.722" type="line"/>
      <point x="53.416" y="351.306" type="line"/>
      <point x="0" y="258.786" type="line"/>
      <point x="0" y="151.955" type="line"/>
      <point x="53.416" y="59.4355" type="line"/>
      <point x="145.936" y="6.01953" type="line"/>
      <point x="252.768" y="6.01953" type="line"/>
      <point x="145.936" y="6.01953" type="line"/>
      <point x="53.416" y="59.4355" type="line"/>
      <point x="0" y="151.955" type="line"/>
      <point x="0" y="547.232" type="line"/>
      <point x="0" y="654.064" type="line"/>
      <point x="53.416" y="746.584" type="line"/>
      <point x="145.936" y="800" type="line"/>
      <point x="252.768" y="800" type="line"/>
      <point x="345.286" y="746.584" type="line"/>
      <point x="398.702" y="654.064" type="line"/>
    </contour>
  </outline>
</glyph>
<glyph name="seven" format="1">
  <advance width="1000"/>
  <unicode hex="0037"/>
  <outline>
    <contour>
      <point x="0" y="800" type="move"/>
      <point x="370.935" y="800" type="line"/>
      <point x="80.9521" y="3.28223" type="line"/>
    </contour>
  </outline>
</glyph>
<glyph name="eight" format="1">
  <advance width="1000"/>
  <unicode hex="0038"/>
  <outline>
    <contour>
      <point x="145.583" y="4.51855" type="move"/>
      <point x="252.157" y="4.51855" type="line"/>
      <point x="344.454" y="57.8057" type="line"/>
      <point x="397.741" y="150.102" type="line"/>
      <point x="397.741" y="256.676" type="line"/>
      <point x="344.454" y="348.972" type="line"/>
      <point x="252.157" y="402.259" type="line"/>
      <point x="145.583" y="402.259" type="line"/>
      <point x="53.2871" y="455.546" type="line"/>
      <point x="0" y="547.843" type="line"/>
      <point x="0" y="654.417" type="line"/>
      <point x="53.2871" y="746.713" type="line"/>
      <point x="145.583" y="800" type="line"/>
      <point x="252.157" y="800" type="line"/>
      <point x="344.454" y="746.713" type="line"/>
      <point x="397.741" y="654.417" type="line"/>
      <point x="397.741" y="547.843" type="line"/>
      <point x="344.454" y="455.546" type="line"/>
      <point x="252.157" y="402.259" type="line"/>
      <point x="145.583" y="402.259" type="line"/>
      <point x="53.2871" y="348.972" type="line"/>
      <point x="0" y="256.676" type="line"/>
      <point x="0" y="150.102" type="line"/>
      <point x="53.2871" y="57.8057" type="line"/>
      <point x="145.583" y="4.51855" type="line"/>
    </contour>
  </outline>
</glyph>
<glyph name="nine" format="1">
  <advance width="1000"/>
  <unicode hex="0039"/>
  <outline>
    <contour>
      <point x="145.56" y="800" type="move"/>
      <point x="53.2783" y="746.722" type="line"/>
      <point x="0" y="654.44" type="line"/>
      <point x="0" y="547.884" type="line"/>
      <point x="53.2783" y="455.603" type="line"/>
      <point x="145.56" y="402.324" type="line"/>
      <point x="252.116" y="402.324" type="line"/>
      <point x="344.397" y="455.603" type="line"/>
      <point x="397.676" y="547.884" type="line"/>
      <point x="397.676" y="654.44" type="line"/>
      <point x="344.397" y="746.722" type="line"/>
      <point x="252.116" y="800" type="line"/>
      <point x="145.56" y="800" type="line"/>
      <point x="252.116" y="800" type="line"/>
      <point x="344.397" y="746.722" type="line"/>
      <point x="397.676" y="654.44" type="line"/>
      <point x="397.676" y="260.18" type="line"/>
      <point x="397.676" y="153.623" type="line"/>
      <point x="344.397" y="61.3418" type="line"/>
      <point x="252.116" y="8.06348" type="line"/>
      <point x="145.56" y="8.06348" type="line"/>
      <point x="53.2783" y="61.3418" type="line"/>
      <point x="0" y="153.623" type="line"/>
    </contour>
  </outline>
</glyph>
<glyph name="question" format="1">
  <advance width="1000"/>
  <unicode hex="003F"/>
  <outline>
    <contour>
      <point x="0" y="800" type="move"/>
      <point x="102.846" y="800" type="line"/>
      <point x="191.912" y="748.577" type="line"/>
      <point x="243.335" y="659.511" type="line"/>
      <point x="243.335" y="556.665" type="line"/>
      <point x="191.912" y="467.598" type="line"/>
      <point x="102.846" y="416.175" type="line"/>
      <point x="102.846" y="210.483" type="line"/>
    </contour>
    <contour>
      <point x="102.846" y="56.2148" type="move"/>
      <point x="102.846" y="4.79199" type="line"/>
    </contour>
  </outline>
</glyph>
<glyph name="A" format="1">
  <advance width="1000"/>
  <unicode hex="0041"/>
  <outline>
    <contour>
      <point x="200.012" y="-0.0927734" type="move"/>
      <point x="485.183" y="783.408" type="line"/>
      <point x="770.354" y="-0.0927734" type="line"/>
    </contour>
    <contour>
      <point x="659.248" y="305.167" type="move"/>
      <point x="307.326" y="305.167" type="line"/>
    </contour>
  </outline>
</glyph>
<glyph name="B" format="1">
  <advance width="1000"/>
  <unicode hex="0042"/>
  <outline>
    <contour>
      <point x="0" y="14.9648" type="move"/>
      <point x="0" y="800" type="line"/>
      <point x="209.343" y="800" type="line"/>
      <point x="299.991" y="747.664" type="line"/>
      <point x="352.326" y="657.017" type="line"/>
      <point x="352.326" y="552.345" type="line"/>
      <point x="299.991" y="461.696" type="line"/>
      <point x="209.343" y="409.361" type="line"/>
      <point x="0" y="409.361" type="line"/>
      <point x="209.343" y="409.361" type="line"/>
      <point x="299.991" y="357.025" type="line"/>
      <point x="352.326" y="266.377" type="line"/>
      <point x="352.326" y="161.706" type="line"/>
      <point x="299.991" y="71.0576" type="line"/>
      <point x="209.343" y="18.7217" type="line"/>
      <point x="0" y="18.7217" type="line"/>
    </contour>
  </outline>
</glyph>
<glyph name="C" format="1">
  <advance width="1000"/>
  <unicode hex="0043"/>
  <outline>
    <contour>
      <point x="684.632" y="694.087" type="move"/>
      <point x="501.186" y="800" type="line"/>
      <point x="289.359" y="800" type="line"/>
      <point x="105.913" y="694.087" type="line"/>
      <point x="0" y="510.641" type="line"/>
      <point x="0" y="298.815" type="line"/>
      <point x="105.913" y="115.368" type="line"/>
      <point x="289.359" y="9.45605" type="line"/>
      <point x="501.186" y="9.45605" type="line"/>
      <point x="684.632" y="115.368" type="line"/>
    </contour>
  </outline>
</glyph>
<glyph name="D" format="1">
  <advance width="1000"/>
  <unicode hex="0044"/>
  <outline>
    <contour>
      <point x="0" y="15.5186" type="move"/>
      <point x="210.201" y="15.5186" type="line"/>
      <point x="392.24" y="120.619" type="line"/>
      <point x="497.341" y="302.659" type="line"/>
      <point x="497.341" y="512.86" type="line"/>
      <point x="392.24" y="694.899" type="line"/>
      <point x="210.201" y="800" type="line"/>
      <point x="0" y="800" type="line"/>
      <point x="0" y="11.7461" type="line"/>
    </contour>
  </outline>
</glyph>
<glyph name="E" format="1">
  <advance width="1000"/>
  <unicode hex="0045"/>
  <outline>
    <contour>
      <point x="0" y="6.22852" type="move"/>
      <point x="0" y="800" type="line"/>
      <point x="370.427" y="800" type="line"/>
    </contour>
    <contour>
      <point x="0" y="403.114" type="move"/>
      <point x="264.591" y="403.114" type="line"/>
    </contour>
    <contour>
      <point x="0" y="6.22852" type="move"/>
      <point x="370.427" y="6.22852" type="line"/>
    </contour>
  </outline>
</glyph>
<glyph name="F" format="1">
  <advance width="1000"/>
  <unicode hex="0046"/>
  <outline>
    <contour>
      <point x="0" y="9.60645" type="move"/>
      <point x="0" y="800" type="line"/>
      <point x="368.851" y="800" type="line"/>
    </contour>
    <contour>
      <point x="0" y="404.803" type="move"/>
      <point x="263.465" y="404.803" type="line"/>
    </contour>
  </outline>
</glyph>
<glyph name="G" format="1">
  <advance width="1000"/>
  <unicode hex="0047"/>
  <outline>
    <contour>
      <point x="683.807" y="694.215" type="move"/>
      <point x="500.581" y="800" type="line"/>
      <point x="289.011" y="800" type="line"/>
      <point x="105.785" y="694.215" type="line"/>
      <point x="0" y="510.989" type="line"/>
      <point x="0" y="299.419" type="line"/>
      <point x="105.785" y="116.193" type="line"/>
      <point x="289.011" y="10.4082" type="line"/>
      <point x="500.581" y="10.4082" type="line"/>
      <point x="683.807" y="116.193" type="line"/>
      <point x="683.807" y="327.764" type="line"/>
      <point x="472.236" y="327.764" type="line"/>
    </contour>
  </outline>
</glyph>
<glyph name="H" format="1">
  <advance width="1000"/>
  <unicode hex="0048"/>
  <outline>
    <contour>
      <point x="0" y="2.85156" type="move"/>
      <point x="0" y="800" type="line"/>
    </contour>
    <contour>
      <point x="0" y="401.426" type="move"/>
      <point x="372.003" y="401.426" type="line"/>
    </contour>
    <contour>
      <point x="372.003" y="800" type="move"/>
      <point x="372.003" y="2.85156" type="line"/>
    </contour>
  </outline>
</glyph>
<glyph name="I" format="1">
  <advance width="1000"/>
  <unicode hex="0049"/>
  <outline>
    <contour>
      <point x="0" y="6.22852" type="move"/>
      <point x="0" y="800" type="line"/>
    </contour>
  </outline>
</glyph>
<glyph name="J" format="1">
  <advance width="1000"/>
  <unicode hex="004A"/>
  <outline>
    <contour>
      <point x="244.012" y="308.124" type="move" smooth="yes"/>
    </contour>
    <contour>
      <point x="0" y="154.977" type="move"/>
      <point x="53.752" y="61.876" type="line"/>
      <point x="146.853" y="8.12402" type="line"/>
      <point x="308.108" y="8.12402" type="line"/>
      <point x="401.21" y="61.876" type="line"/>
      <point x="454.962" y="154.977" type="line"/>
      <point x="454.962" y="800" type="line"/>
    </contour>
  </outline>
</glyph>
<glyph name="K" format="1">
  <advance width="1000"/>
  <unicode hex="004B"/>
  <outline>
    <contour>
      <point x="0" y="4.14648" type="move"/>
      <point x="0" y="800" type="line"/>
    </contour>
    <contour>
      <point x="371.398" y="800" type="move"/>
      <point x="6.21191" y="278.46" type="line"/>
    </contour>
    <contour>
      <point x="371.398" y="4.14648" type="move"/>
      <point x="147.17" y="485.005" type="line"/>
    </contour>
  </outline>
</glyph>
<glyph name="L" format="1">
  <advance width="1000"/>
  <unicode hex="004C"/>
  <outline>
    <contour>
      <point x="0" y="800" type="move"/>
      <point x="0" y="3.55371" type="line"/>
      <point x="371.675" y="3.55371" type="line"/>
    </contour>
  </outline>
</glyph>
<glyph name="M" format="1">
  <advance width="1000"/>
  <unicode hex="004D"/>
  <outline>
    <contour>
      <point x="285.301" y="309.482" type="move" smooth="yes"/>
    </contour>
    <contour>
      <point x="555.166" y="9.48242" type="move"/>
      <point x="555.166" y="800" type="line"/>
      <point x="277.583" y="37.3477" type="line"/>
      <point x="0" y="800" type="line"/>
      <point x="0" y="9.48242" type="line"/>
    </contour>
  </outline>
</glyph>
<glyph name="N" format="1">
  <advance width="1000"/>
  <unicode hex="004E"/>
  <outline>
    <contour>
      <point x="0" y="7.68555" type="move"/>
      <point x="0" y="800" type="line"/>
      <point x="369.671" y="7.23926" type="line"/>
      <point x="369.671" y="799.554" type="line"/>
    </contour>
  </outline>
</glyph>
<glyph name="O" format="1">
  <advance width="1000"/>
  <unicode hex="004F"/>
  <outline>
    <contour>
      <point x="502.081" y="8.04199" type="line"/>
      <point x="685.855" y="114.145" type="line"/>
      <point x="791.958" y="297.919" type="line"/>
      <point x="791.958" y="510.123" type="line"/>
      <point x="685.855" y="693.897" type="line"/>
      <point x="502.081" y="800" type="line"/>
      <point x="289.877" y="800" type="line"/>
      <point x="106.103" y="693.897" type="line"/>
      <point x="0" y="510.123" type="line"/>
      <point x="0" y="297.919" type="line"/>
      <point x="106.103" y="114.145" type="line"/>
      <point x="289.877" y="8.04199" type="line"/>
    </contour>
  </outline>
</glyph>
<glyph name="P" format="1">
  <advance width="1000"/>
  <unicode hex="0050"/>
  <outline>
    <contour>
      <point x="0" y="13.0811" type="move"/>
      <point x="0" y="800" type="line"/>
      <point x="209.845" y="800" type="line"/>
      <point x="300.711" y="747.539" type="line"/>
      <point x="353.172" y="656.673" type="line"/>
      <point x="353.172" y="551.751" type="line"/>
      <point x="300.711" y="460.885" type="line"/>
      <point x="209.845" y="408.424" type="line"/>
      <point x="0" y="408.424" type="line"/>
    </contour>
  </outline>
</glyph>
<glyph name="Q" format="1">
  <advance width="1000"/>
  <unicode hex="0051"/>
  <outline>
    <contour>
      <point x="470.634" y="57.6455" type="line"/>
      <point x="642.898" y="157.102" type="line"/>
      <point x="742.354" y="329.366" type="line"/>
      <point x="742.354" y="528.279" type="line"/>
      <point x="642.898" y="700.543" type="line"/>
      <point x="470.634" y="800" type="line"/>
      <point x="271.721" y="800" type="line"/>
      <point x="99.457" y="700.543" type="line"/>
      <point x="0" y="528.279" type="line"/>
      <point x="0" y="329.366" type="line"/>
      <point x="99.457" y="157.102" type="line"/>
      <point x="271.721" y="57.6455" type="line"/>
    </contour>
    <contour>
      <point x="371.178" y="206.83" type="move"/>
      <point x="715.705" y="7.91699" type="line"/>
    </contour>
  </outline>
</glyph>
<glyph name="R" format="1">
  <advance width="1000"/>
  <unicode hex="0052"/>
  <outline>
    <contour>
      <point x="0" y="6.22852" type="move"/>
      <point x="0" y="800" type="line"/>
      <point x="211.672" y="800" type="line"/>
      <point x="303.329" y="747.082" type="line"/>
      <point x="356.247" y="655.425" type="line"/>
      <point x="356.247" y="549.589" type="line"/>
      <point x="303.329" y="457.933" type="line"/>
      <point x="211.672" y="405.014" type="line"/>
      <point x="-0" y="405.014" type="line"/>
      <point x="211.672" y="405.014" type="line"/>
      <point x="433.928" y="20.0557" type="line"/>
    </contour>
  </outline>
</glyph>
<glyph name="S" format="1">
  <advance width="1000"/>
  <unicode hex="0053"/>
  <outline>
    <contour>
      <point x="349.169" y="747.662" type="move"/>
      <point x="258.517" y="800" type="line"/>
      <point x="153.841" y="800" type="line"/>
      <point x="63.1885" y="747.662" type="line"/>
      <point x="10.8506" y="657.01" type="line"/>
      <point x="10.8506" y="552.333" type="line"/>
      <point x="63.1885" y="461.681" type="line"/>
      <point x="299.261" y="375.758" type="line"/>
      <point x="366.545" y="295.571" type="line"/>
      <point x="384.723" y="192.485" type="line"/>
      <point x="348.921" y="94.1211" type="line"/>
      <point x="268.734" y="26.8369" type="line"/>
      <point x="165.648" y="8.66016" type="line"/>
      <point x="67.2842" y="44.4609" type="line"/>
      <point x="0" y="124.648" type="line"/>
    </contour>
  </outline>
</glyph>
<glyph name="T" format="1">
  <advance width="1000"/>
  <unicode hex="0054"/>
  <outline>
    <contour>
      <point x="185.213" y="6.22852" type="move"/>
      <point x="185.213" y="800" type="line"/>
    </contour>
    <contour>
      <point x="370.427" y="800" type="move"/>
      <point x="0" y="800" type="line"/>
    </contour>
  </outline>
</glyph>
<glyph name="U" format="1">
  <advance width="1000"/>
  <unicode hex="0055"/>
  <outline>
    <contour>
      <point x="0" y="800" type="move"/>
      <point x="0" y="156.804" type="line"/>
      <point x="53.5996" y="63.9658" type="line"/>
      <point x="146.438" y="10.3662" type="line"/>
      <point x="307.236" y="10.3662" type="line"/>
      <point x="400.074" y="63.9658" type="line"/>
      <point x="453.674" y="156.804" type="line"/>
      <point x="453.674" y="800" type="line"/>
    </contour>
  </outline>
</glyph>
<glyph name="V" format="1">
  <advance width="1000"/>
  <unicode hex="0056"/>
  <outline>
    <contour>
      <point x="581.183" y="800" type="move"/>
      <point x="290.592" y="1.60645" type="line"/>
      <point x="0" y="800" type="line"/>
    </contour>
  </outline>
</glyph>
<glyph name="W" format="1">
  <advance width="1000"/>
  <unicode hex="0057"/>
  <outline>
    <contour>
      <point x="989.703" y="800" type="move"/>
      <point x="742.277" y="120.203" type="line"/>
      <point x="494.852" y="800" type="line"/>
      <point x="247.426" y="120.203" type="line"/>
      <point x="0" y="800" type="line"/>
    </contour>
  </outline>
</glyph>
<glyph name="X" format="1">
  <advance width="1000"/>
  <unicode hex="0058"/>
  <outline>
    <contour>
      <point x="0" y="800" type="move" smooth="yes"/>
    </contour>
    <contour>
      <point x="369.892" y="800" type="move"/>
      <point x="0.0761719" y="6.92871" type="line"/>
    </contour>
    <contour>
      <point x="369.968" y="6.92871" type="move"/>
      <point x="0.152344" y="800" type="line"/>
    </contour>
  </outline>
</glyph>
<glyph name="Y" format="1">
  <advance width="1000"/>
  <unicode hex="0059"/>
  <outline>
    <contour>
      <point x="0" y="800" type="move" smooth="yes"/>
    </contour>
    <contour>
      <point x="369.995" y="800" type="move"/>
      <point x="185.035" y="403.354" type="line"/>
    </contour>
    <contour>
      <point x="185.112" y="403.354" type="move"/>
      <point x="0.152344" y="800" type="line"/>
    </contour>
    <contour>
      <point x="185.112" y="403.354" type="move"/>
      <point x="185.112" y="6.92969" type="line"/>
    </contour>
  </outline>
</glyph>
<glyph name="Z" format="1">
  <advance width="1000"/>
  <unicode hex="005A"/>
  <outline>
    <contour>
      <point x="0" y="800" type="move"/>
      <point x="368.316" y="800" type="line"/>
      <point x="0.0761719" y="10.3066" type="line"/>
      <point x="368.392" y="10.3066" type="line"/>
    </contour>
  </outline>
</glyph>
<glyph name="u1F422" format="1">
  <advance width="1000"/>
  <unicode hex="1F422"/>
  <outline>
    <contour>
      <point x="1.56152" y="394.975" type="move"/>
      <point x="662.971" y="394.975" type="line"/>
      <point x="607.949" y="449.997" type="line"/>
      <point x="662.971" y="394.975" type="line"/>
      <point x="607.949" y="339.953" type="line"/>
      <point x="607.949" y="280.097" type="line"/>
      <point x="438.65" y="110.799" type="line"/>
      <point x="199.227" y="110.799" type="line"/>
      <point x="29.9277" y="280.097" type="line"/>
      <point x="29.9277" y="519.521" type="line"/>
      <point x="199.227" y="688.819" type="line"/>
      <point x="438.65" y="688.819" type="line"/>
      <point x="607.949" y="519.521" type="line"/>
      <point x="607.949" y="280.097" type="line"/>
      <point x="586.787" y="258.935" type="line"/>
      <point x="629.111" y="216.61" type="line"/>
      <point x="527.927" y="-0.381836" type="line"/>
      <point x="500.803" y="12.2666" type="line"/>
      <point x="516.453" y="191.151" type="line"/>
    </contour>
    <contour>
      <point x="586.787" y="540.684" type="move"/>
      <point x="629.111" y="583.008" type="line"/>
      <point x="527.927" y="800" type="line"/>
      <point x="500.803" y="787.352" type="line"/>
      <point x="516.453" y="608.467" type="line"/>
    </contour>
    <contour>
      <point x="93.415" y="583.008" type="move"/>
      <point x="51.0908" y="625.333" type="line"/>
      <point x="51.0908" y="541.534" type="line"/>
    </contour>
    <contour>
      <point x="51.0908" y="260.211" type="move"/>
      <point x="51.0908" y="176.412" type="line"/>
      <point x="93.415" y="218.737" type="line"/>
    </contour>
    <contour>
      <point x="29.627" y="366.323" type="move"/>
      <point x="0" y="395.95" type="line"/>
      <point x="29.627" y="425.577" type="line"/>
    </contour>
  </outline>
</glyph>
